<svg display="none" xmlns="http://www.w3.org/2000/svg">
	<symbol viewBox="0 0 65 64.9756" id="youtube-icon">
	<path  fill="inherit" d="M20.22 7.78C27.88 6.52 37.11 6.52 44.77 7.78C51.73 8.92 57.12 14.57 58.15 20.66C59.4 28.02 59.4 36.94 58.15 44.31C57.12 50.4 51.73 56.05 44.77 57.19C37.11 58.45 27.88 58.45 20.22 57.19C13.26 56.05 7.87 50.4 6.84 44.31C5.59 36.94 5.59 28.02 6.84 20.66C7.87 14.57 13.26 8.92 20.22 7.78ZM45.6 1C37.39 -0.34 27.6 -0.34 19.39 1C10.48 2.46 2.65 9.82 1.04 19.34C-0.35 27.58 -0.35 37.39 1.04 45.63C2.65 55.15 10.48 62.5 19.39 63.96C27.6 65.31 37.39 65.31 45.6 63.96C54.51 62.5 62.34 55.15 63.95 45.63C65.34 37.39 65.34 27.58 63.95 19.34C62.34 9.82 54.51 2.46 45.6 1ZM28.22 15.96C27.32 15.26 26.15 15.19 25.19 15.79C24.23 16.38 23.63 17.54 23.63 18.8L23.63 46.16C23.63 47.42 24.23 48.58 25.19 49.18C26.15 49.77 27.32 49.71 28.22 49.01L45.95 35.33C46.77 34.69 47.27 33.63 47.27 32.48C47.27 31.34 46.77 30.27 45.95 29.64L28.22 15.96ZM38.99 32.48L29.54 39.77L29.54 25.19L38.99 32.48Z"/>
	</symbol>

	<symbol viewBox="0 0 65 64.9756" id="linkedin-icon">
	<path fill="inherit" d="M13 0C5.82 0 0 5.81 0 12.99L0 51.98C0 59.15 5.82 64.97 13 64.97L52 64.97C59.17 64.97 65 59.15 65 51.98L65 12.99C65 5.81 59.17 0 52 0L13 0ZM6.5 12.99C6.5 9.4 9.41 6.49 13 6.49L52 6.49C55.59 6.49 58.5 9.4 58.5 12.99L58.5 51.98C58.5 55.56 55.59 58.47 52 58.47L13 58.47C9.41 58.47 6.5 55.56 6.5 51.98L6.5 12.99ZM22.75 29.23C22.75 27.44 21.29 25.99 19.5 25.99C17.7 25.99 16.25 27.44 16.25 29.23L16.25 48.73C16.25 50.52 17.7 51.98 19.5 51.98C21.29 51.98 22.75 50.52 22.75 48.73L22.75 29.23ZM24.37 17.86C24.37 20.55 22.19 22.74 19.5 22.74C16.8 22.74 14.62 20.55 14.62 17.86C14.62 15.17 16.8 12.99 19.5 12.99C22.19 12.99 24.37 15.17 24.37 17.86ZM32.5 25.99C33.6 25.99 34.57 26.54 35.16 27.38C36.83 26.47 38.68 25.99 40.62 25.99C47.64 25.99 52 32.24 52 37.59L52 37.61L52 37.64L52 37.66L52 37.69L52 37.71L52 37.74L52 37.76L52 37.79L52 37.81L52 37.84L52 37.86L52 37.89L52 37.91L52 37.94L52 37.96L52 37.99L52 38.01L52 38.04L52 38.06L52 38.09L52 38.12L52 38.14L52 38.17L52 38.19L52 38.22L52 38.25L52 38.27L52 38.3L52 38.32L52 38.35L52 38.38L52 38.4L52 38.43L52 38.46L52 38.48L52 38.51L52 38.53L52 38.56L52 38.59L52 38.61L52 38.64L52 38.67L52 38.69L52 38.72L52 38.75L52 38.77L52 38.8L52 38.83L52 38.86L52 38.88L52 38.91L52 38.94L52 38.96L52 38.99L52 39.02L52 39.05L52 39.07L52 39.1L52 39.13L52 39.16L52 39.18L52 39.21L52 39.24L52 39.27L52 39.29L52 39.32L52 39.35L52 39.38L52 39.41L52 39.43L52 39.46L52 39.49L52 39.52L52 39.54L52 39.57L52 39.6L52 39.63L52 39.66L52 39.69L52 39.71L52 39.74L52 39.77L52 39.8L52 39.83L52 39.85L52 39.88L52 39.91L52 39.94L52 39.97L52 40L52 40.03L52 40.05L52 40.08L52 40.11L52 40.14L52 40.17L52 40.2L52 40.22L52 40.25L52 40.28L52 40.31L52 40.34L52 40.37L52 40.4L52 40.43L52 40.46L52 40.48L52 40.51L52 40.54L52 40.57L52 40.6L52 40.63L52 40.66L52 40.69L52 40.71L52 40.74L52 40.77L52 40.8L52 40.83L52 40.86L52 40.89L52 40.92L52 40.95L52 40.97L52 41L52 41.03L52 41.06L52 41.09L52 41.12L52 41.15L52 41.18L52 41.21L52 41.24L52 41.27L52 41.29L52 41.32L52 41.35L52 41.38L52 41.41L52 41.44L52 41.47L52 41.5L52 41.53L52 41.56L52 41.59L52 41.62L52 41.64L52 41.67L52 41.7L52 41.73L52 41.76L52 41.79L52 41.82L52 41.85L52 41.88L52 41.91L52 41.94L52 41.96L52 41.99L52 42.02L52 42.05L52 42.08L52 42.11L52 42.14L52 42.17L52 42.2L52 42.23L52 42.26L52 42.28L52 42.31L52 42.34L52 42.37L52 42.4L52 42.43L52 42.46L52 42.49L52 42.52L52 42.54L52 42.57L52 42.6L52 42.63L52 42.66L52 42.69L52 42.72L52 42.75L52 42.78L52 42.8L52 42.83L52 42.86L52 42.89L52 42.92L52 42.95L52 42.98L52 43.01L52 43.03L52 43.06L52 43.09L52 43.12L52 43.15L52 43.18L52 43.21L52 43.23L52 43.26L52 43.29L52 43.32L52 43.35L52 43.38L52 43.4L52 43.43L52 43.46L52 43.49L52 43.52L52 43.55L52 43.57L52 43.6L52 43.63L52 43.66L52 43.69L52 43.71L52 43.74L52 43.77L52 43.8L52 43.83L52 43.85L52 43.88L52 43.91L52 43.94L52 43.96L52 43.99L52 44.02L52 44.05L52 44.08L52 44.1L52 44.13L52 44.16L52 44.19L52 44.21L52 44.24L52 44.27L52 44.29L52 44.32L52 44.35L52 44.38L52 44.4L52 44.43L52 44.46L52 44.48L52 44.51L52 44.54L52 44.56L52 44.59L52 44.62L52 44.64L52 44.67L52 44.7L52 44.72L52 44.75L52 44.78L52 44.8L52 44.83L52 44.86L52 44.88L52 44.91L52 44.93L52 44.96L52 44.99L52 45.01L52 45.04L52 45.07L52 45.09L52 45.12L52 45.14L52 45.17L52 45.19L52 45.22L52 45.25L52 45.27L52 45.29L52 45.32L52 45.35L52 45.37L52 45.4L52 45.42L52 45.45L52 45.47L52 45.5L52 45.52L52 45.55L52 45.57L52 45.6L52 45.62L52 45.64L52 45.67L52 45.69L52 45.72L52 45.74L52 45.77L52 45.79L52 45.81L52 45.84L52 45.86L52 45.89L52 45.91L52 45.93L52 45.96L52 45.98L52 46L52 46.03L52 46.05L52 46.08L52 46.1L52 46.12L52 46.14L52 46.17L52 46.19L52 46.21L52 46.24L52 46.26L52 46.28L52 46.3L52 46.33L52 46.35L52 46.37L52 46.39L52 46.42L52 46.44L52 46.46L52 46.48L52 46.5L52 46.53L52 46.55L52 46.57L52 46.59L52 46.61L52 46.63L52 46.66L52 46.68L52 46.7L52 46.72L52 46.74L52 46.76L52 46.78L52 46.8L52 46.82L52 46.84L52 46.86L52 46.88L52 46.91L52 46.92L52 46.95L52 46.96L52 46.99L52 47L52 47.03L52 47.04L52 47.06L52 47.08L52 47.1L52 47.12L52 47.14L52 47.16L52 47.18L52 47.2L52 47.22L52 47.24L52 47.25L52 47.27L52 47.29L52 47.31L52 47.33L52 47.35L52 47.37L52 47.38L52 47.4L52 47.42L52 47.44L52 47.45L52 47.47L52 47.49L52 47.51L52 47.52L52 47.54L52 47.56L52 47.57L52 47.59L52 47.61L52 47.62L52 47.64L52 47.66L52 47.67L52 47.69L52 47.71L52 47.72L52 47.74L52 47.75L52 47.77L52 47.78L52 47.8L52 47.81L52 47.83L52 47.84L52 47.86L52 47.87L52 47.89L52 47.9L52 47.92L52 47.93L52 47.95L52 47.96L52 47.98L52 47.99L52 48L52 48.02L52 48.03L52 48.04L52 48.06L52 48.07L52 48.08L52 48.1L52 48.11L52 48.12L52 48.13L52 48.15L52 48.16L52 48.17L52 48.18L52 48.2L52 48.21L52 48.22L52 48.23L52 48.24L52 48.25L52 48.27L52 48.28L52 48.29L52 48.3L52 48.31L52 48.32L52 48.33L52 48.34L52 48.35L52 48.36L52 48.37L52 48.38L52 48.39L52 48.4L52 48.41L52 48.42L52 48.43L52 48.44L52 48.45L52 48.46L52 48.46L52 48.47L52 48.48L52 48.49L52 48.5L52 48.51L52 48.51L52 48.52L52 48.53L52 48.54L52 48.54L52 48.55L52 48.56L52 48.57L52 48.57L52 48.58L52 48.59L52 48.59L52 48.6L52 48.6L52 48.61L52 48.62L52 48.62L52 48.63L52 48.63L52 48.64L52 48.64L52 48.65L52 48.65L52 48.66L52 48.66L52 48.67L52 48.67L52 48.67L52 48.68L52 48.68L52 48.69L52 48.69L52 48.69L52 48.7L52 48.71L52 48.71L52 48.71L52 48.72L52 48.72L52 48.73C52 50.52 50.54 51.98 48.75 51.98C46.95 51.98 45.5 50.52 45.5 48.73L45.5 48.72L45.5 48.72L45.5 48.72L45.5 48.71L45.5 48.71L45.5 48.7L45.5 48.7L45.5 48.69L45.5 48.69L45.5 48.68L45.5 48.68L45.5 48.67L45.5 48.67L45.5 48.67L45.5 48.66L45.5 48.66L45.5 48.65L45.5 48.65L45.5 48.64L45.5 48.64L45.5 48.63L45.5 48.63L45.5 48.62L45.5 48.62L45.5 48.61L45.5 48.6L45.5 48.6L45.5 48.59L45.5 48.59L45.5 48.58L45.5 48.57L45.5 48.57L45.5 48.56L45.5 48.55L45.5 48.54L45.5 48.54L45.5 48.53L45.5 48.52L45.5 48.51L45.5 48.51L45.5 48.5L45.5 48.49L45.5 48.48L45.5 48.47L45.5 48.46L45.5 48.46L45.5 48.45L45.5 48.44L45.5 48.43L45.5 48.42L45.5 48.41L45.5 48.4L45.5 48.39L45.5 48.38L45.5 48.37L45.5 48.36L45.5 48.35L45.5 48.34L45.5 48.33L45.5 48.32L45.5 48.31L45.5 48.3L45.5 48.29L45.5 48.28L45.5 48.27L45.5 48.25L45.5 48.24L45.5 48.23L45.5 48.22L45.5 48.21L45.5 48.2L45.5 48.18L45.5 48.17L45.5 48.16L45.5 48.15L45.5 48.13L45.5 48.12L45.5 48.11L45.5 48.1L45.5 48.08L45.5 48.07L45.5 48.06L45.5 48.04L45.5 48.03L45.5 48.02L45.5 48L45.5 47.99L45.5 47.98L45.5 47.96L45.5 47.95L45.5 47.93L45.5 47.92L45.5 47.9L45.5 47.89L45.5 47.87L45.5 47.86L45.5 47.84L45.5 47.83L45.5 47.81L45.5 47.8L45.5 47.78L45.5 47.77L45.5 47.75L45.5 47.74L45.5 47.72L45.5 47.71L45.5 47.69L45.5 47.67L45.5 47.66L45.5 47.64L45.5 47.62L45.5 47.61L45.5 47.59L45.5 47.57L45.5 47.56L45.5 47.54L45.5 47.52L45.5 47.51L45.5 47.49L45.5 47.47L45.5 47.45L45.5 47.44L45.5 47.42L45.5 47.4L45.5 47.38L45.5 47.37L45.5 47.35L45.5 47.33L45.5 47.31L45.5 47.29L45.5 47.27L45.5 47.25L45.5 47.24L45.5 47.22L45.5 47.2L45.5 47.18L45.5 47.16L45.5 47.14L45.5 47.12L45.5 47.1L45.5 47.08L45.5 47.06L45.5 47.04L45.5 47.03L45.5 47L45.5 46.99L45.5 46.96L45.5 46.95L45.5 46.92L45.5 46.91L45.5 46.88L45.5 46.86L45.5 46.84L45.5 46.82L45.5 46.8L45.5 46.78L45.5 46.76L45.5 46.74L45.5 46.72L45.5 46.7L45.5 46.68L45.5 46.66L45.5 46.63L45.5 46.61L45.5 46.59L45.5 46.57L45.5 46.55L45.5 46.53L45.5 46.5L45.5 46.48L45.5 46.46L45.5 46.44L45.5 46.42L45.5 46.39L45.5 46.37L45.5 46.35L45.5 46.33L45.5 46.3L45.5 46.28L45.5 46.26L45.5 46.24L45.5 46.21L45.5 46.19L45.5 46.17L45.5 46.14L45.5 46.12L45.5 46.1L45.5 46.08L45.5 46.05L45.5 46.03L45.5 46L45.5 45.98L45.5 45.96L45.5 45.93L45.5 45.91L45.5 45.89L45.5 45.86L45.5 45.84L45.5 45.81L45.5 45.79L45.5 45.77L45.5 45.74L45.5 45.72L45.5 45.69L45.5 45.67L45.5 45.64L45.5 45.62L45.5 45.6L45.5 45.57L45.5 45.55L45.5 45.52L45.5 45.5L45.5 45.47L45.5 45.45L45.5 45.42L45.5 45.4L45.5 45.37L45.5 45.35L45.5 45.32L45.5 45.29L45.5 45.27L45.5 45.25L45.5 45.22L45.5 45.19L45.5 45.17L45.5 45.14L45.5 45.12L45.5 45.09L45.5 45.07L45.5 45.04L45.5 45.01L45.5 44.99L45.5 44.96L45.5 44.93L45.5 44.91L45.5 44.88L45.5 44.86L45.5 44.83L45.5 44.8L45.5 44.78L45.5 44.75L45.5 44.72L45.5 44.7L45.5 44.67L45.5 44.64L45.5 44.62L45.5 44.59L45.5 44.56L45.5 44.54L45.5 44.51L45.5 44.48L45.5 44.46L45.5 44.43L45.5 44.4L45.5 44.38L45.5 44.35L45.5 44.32L45.5 44.29L45.5 44.27L45.5 44.24L45.5 44.21L45.5 44.19L45.5 44.16L45.5 44.13L45.5 44.1L45.5 44.08L45.5 44.05L45.5 44.02L45.5 43.99L45.5 43.96L45.5 43.94L45.5 43.91L45.5 43.88L45.5 43.85L45.5 43.83L45.5 43.8L45.5 43.77L45.5 43.74L45.5 43.71L45.5 43.69L45.5 43.66L45.5 43.63L45.5 43.6L45.5 43.57L45.5 43.55L45.5 43.52L45.5 43.49L45.5 43.46L45.5 43.43L45.5 43.4L45.5 43.38L45.5 43.35L45.5 43.32L45.5 43.29L45.5 43.26L45.5 43.23L45.5 43.21L45.5 43.18L45.5 43.15L45.5 43.12L45.5 43.09L45.5 43.06L45.5 43.03L45.5 43.01L45.5 42.98L45.5 42.95L45.5 42.92L45.5 42.89L45.5 42.86L45.5 42.83L45.5 42.8L45.5 42.78L45.5 42.75L45.5 42.72L45.5 42.69L45.5 42.66L45.5 42.63L45.5 42.6L45.5 42.57L45.5 42.54L45.5 42.52L45.5 42.49L45.5 42.46L45.5 42.43L45.5 42.4L45.5 42.37L45.5 42.34L45.5 42.31L45.5 42.28L45.5 42.26L45.5 42.23L45.5 42.2L45.5 42.17L45.5 42.14L45.5 42.11L45.5 42.08L45.5 42.05L45.5 42.02L45.5 41.99L45.5 41.96L45.5 41.94L45.5 41.91L45.5 41.88L45.5 41.85L45.5 41.82L45.5 41.79L45.5 41.76L45.5 41.73L45.5 41.7L45.5 41.67L45.5 41.64L45.5 41.62L45.5 41.59L45.5 41.56L45.5 41.53L45.5 41.5L45.5 41.47L45.5 41.44L45.5 41.41L45.5 41.38L45.5 41.35L45.5 41.32L45.5 41.29L45.5 41.27L45.5 41.24L45.5 41.21L45.5 41.18L45.5 41.15L45.5 41.12L45.5 41.09L45.5 41.06L45.5 41.03L45.5 41L45.5 40.97L45.5 40.95L45.5 40.92L45.5 40.89L45.5 40.86L45.5 40.83L45.5 40.8L45.5 40.77L45.5 40.74L45.5 40.71L45.5 40.69L45.5 40.66L45.5 40.63L45.5 40.6L45.5 40.57L45.5 40.54L45.5 40.51L45.5 40.48L45.5 40.46L45.5 40.43L45.5 40.4L45.5 40.37L45.5 40.34L45.5 40.31L45.5 40.28L45.5 40.25L45.5 40.22L45.5 40.2L45.5 40.17L45.5 40.14L45.5 40.11L45.5 40.08L45.5 40.05L45.5 40.03L45.5 40L45.5 39.97L45.5 39.94L45.5 39.91L45.5 39.88L45.5 39.85L45.5 39.83L45.5 39.8L45.5 39.77L45.5 39.74L45.5 39.71L45.5 39.69L45.5 39.66L45.5 39.63L45.5 39.6L45.5 39.57L45.5 39.54L45.5 39.52L45.5 39.49L45.5 39.46L45.5 39.43L45.5 39.41L45.5 39.38L45.5 39.35L45.5 39.32L45.5 39.29L45.5 39.27L45.5 39.24L45.5 39.21L45.5 39.18L45.5 39.16L45.5 39.13L45.5 39.1L45.5 39.07L45.5 39.05L45.5 39.02L45.5 38.99L45.5 38.96L45.5 38.94L45.5 38.91L45.5 38.88L45.5 38.86L45.5 38.83L45.5 38.8L45.5 38.77L45.5 38.75L45.5 38.72L45.5 38.69L45.5 38.67L45.5 38.64L45.5 38.61L45.5 38.59L45.5 38.56L45.5 38.53L45.5 38.51L45.5 38.48L45.5 38.46L45.5 38.43L45.5 38.4L45.5 38.38L45.5 38.35L45.5 38.32L45.5 38.3L45.5 38.27L45.5 38.25L45.5 38.22L45.5 38.19L45.5 38.17L45.5 38.14L45.5 38.12L45.5 38.09L45.5 38.06L45.5 38.04L45.5 38.01L45.5 37.99L45.5 37.96L45.5 37.94L45.5 37.91L45.5 37.89L45.5 37.86L45.5 37.84L45.5 37.81L45.5 37.79L45.5 37.76L45.5 37.74L45.5 37.71L45.5 37.69L45.5 37.66L45.5 37.64L45.5 37.61L45.5 37.59C45.5 35.09 43.35 32.48 40.62 32.48C38.92 32.48 37.04 33.41 35.75 35.61L35.75 35.62L35.75 35.65L35.75 35.69L35.75 35.72L35.75 35.75L35.75 35.79L35.75 35.82L35.75 35.86L35.75 35.89L35.75 35.92L35.75 35.96L35.75 35.99L35.75 36.03L35.75 36.06L35.75 36.09L35.75 36.13L35.75 36.16L35.75 36.2L35.75 36.23L35.75 36.27L35.75 36.3L35.75 36.33L35.75 36.37L35.75 36.4L35.75 36.44L35.75 36.47L35.75 36.51L35.75 36.54L35.75 36.58L35.75 36.61L35.75 36.65L35.75 36.68L35.75 36.72L35.75 36.75L35.75 36.79L35.75 36.82L35.75 36.86L35.75 36.89L35.75 36.93L35.75 36.96L35.75 37L35.75 37.03L35.75 37.07L35.75 37.1L35.75 37.14L35.75 37.18L35.75 37.21L35.75 37.25L35.75 37.28L35.75 37.32L35.75 37.35L35.75 37.39L35.75 37.42L35.75 37.46L35.75 37.5L35.75 37.53L35.75 37.57L35.75 37.6L35.75 37.64L35.75 37.67L35.75 37.71L35.75 37.75L35.75 37.78L35.75 37.82L35.75 37.86L35.75 37.89L35.75 37.93L35.75 37.96L35.75 38L35.75 38.04L35.75 38.07L35.75 38.11L35.75 38.14L35.75 38.18L35.75 38.22L35.75 38.25L35.75 38.29L35.75 38.33L35.75 38.36L35.75 38.4L35.75 38.43L35.75 38.47L35.75 38.51L35.75 38.54L35.75 38.58L35.75 38.62L35.75 38.65L35.75 38.69L35.75 38.73L35.75 38.76L35.75 38.8L35.75 38.83L35.75 38.87L35.75 38.91L35.75 38.94L35.75 38.98L35.75 39.02L35.75 39.05L35.75 39.09L35.75 39.13L35.75 39.16L35.75 39.2L35.75 39.24L35.75 39.27L35.75 39.31L35.75 39.35L35.75 39.38L35.75 39.42L35.75 39.46L35.75 39.49L35.75 39.53L35.75 39.57L35.75 39.6L35.75 39.64L35.75 39.68L35.75 39.71L35.75 39.75L35.75 39.79L35.75 39.82L35.75 39.86L35.75 39.9L35.75 39.93L35.75 39.97L35.75 40L35.75 40.04L35.75 40.08L35.75 40.11L35.75 40.15L35.75 40.19L35.75 40.22L35.75 40.26L35.75 40.3L35.75 40.33L35.75 40.37L35.75 40.41L35.75 40.44L35.75 40.48L35.75 40.52L35.75 40.55L35.75 40.59L35.75 40.62L35.75 40.66L35.75 40.7L35.75 40.73L35.75 40.77L35.75 40.81L35.75 40.84L35.75 40.88L35.75 40.91L35.75 40.95L35.75 40.99L35.75 41.02L35.75 41.06L35.75 41.1L35.75 41.13L35.75 41.17L35.75 41.2L35.75 41.24L35.75 41.28L35.75 41.31L35.75 41.35L35.75 41.38L35.75 41.42L35.75 41.46L35.75 41.49L35.75 41.53L35.75 41.56L35.75 41.6L35.75 41.63L35.75 41.67L35.75 41.71L35.75 41.74L35.75 41.78L35.75 41.81L35.75 41.85L35.75 41.88L35.75 41.92L35.75 41.96L35.75 41.99L35.75 42.03L35.75 42.06L35.75 42.1L35.75 42.13L35.75 42.17L35.75 42.2L35.75 42.24L35.75 42.27L35.75 42.31L35.75 42.34L35.75 42.38L35.75 42.41L35.75 42.45L35.75 42.48L35.75 42.52L35.75 42.55L35.75 42.59L35.75 42.62L35.75 42.66L35.75 42.69L35.75 42.73L35.75 42.76L35.75 42.79L35.75 42.83L35.75 42.86L35.75 42.9L35.75 42.93L35.75 42.97L35.75 43L35.75 43.03L35.75 43.07L35.75 43.1L35.75 43.14L35.75 43.17L35.75 43.2L35.75 43.24L35.75 43.27L35.75 43.31L35.75 43.34L35.75 43.37L35.75 43.41L35.75 43.44L35.75 43.47L35.75 43.51L35.75 43.54L35.75 43.57L35.75 43.61L35.75 43.64L35.75 43.67L35.75 43.71L35.75 43.74L35.75 43.77L35.75 43.8L35.75 43.84L35.75 43.87L35.75 43.9L35.75 43.94L35.75 43.97L35.75 44L35.75 44.03L35.75 44.07L35.75 44.1L35.75 44.13L35.75 44.16L35.75 44.19L35.75 44.23L35.75 44.26L35.75 44.29L35.75 44.32L35.75 44.35L35.75 44.38L35.75 44.42L35.75 44.45L35.75 44.48L35.75 44.51L35.75 44.54L35.75 44.57L35.75 44.6L35.75 44.64L35.75 44.67L35.75 44.7L35.75 44.73L35.75 44.76L35.75 44.79L35.75 44.82L35.75 44.85L35.75 44.88L35.75 44.91L35.75 44.94L35.75 44.97L35.75 45L35.75 45.03L35.75 45.06L35.75 45.09L35.75 45.12L35.75 45.15L35.75 45.18L35.75 45.21L35.75 45.24L35.75 45.27L35.75 45.3L35.75 45.33L35.75 45.36L35.75 45.39L35.75 45.42L35.75 45.44L35.75 45.47L35.75 45.5L35.75 45.53L35.75 45.56L35.75 45.59L35.75 45.62L35.75 45.64L35.75 45.67L35.75 45.7L35.75 45.73L35.75 45.76L35.75 45.78L35.75 45.81L35.75 45.84L35.75 45.87L35.75 45.89L35.75 45.92L35.75 45.95L35.75 45.97L35.75 46L35.75 46.03L35.75 46.06L35.75 46.08L35.75 46.11L35.75 46.13L35.75 46.16L35.75 46.19L35.75 46.21L35.75 46.24L35.75 46.27L35.75 46.29L35.75 46.32L35.75 46.34L35.75 46.37L35.75 46.39L35.75 46.42L35.75 46.44L35.75 46.47L35.75 46.49L35.75 46.52L35.75 46.54L35.75 46.57L35.75 46.59L35.75 46.62L35.75 46.64L35.75 46.67L35.75 46.69L35.75 46.71L35.75 46.74L35.75 46.76L35.75 46.79L35.75 46.81L35.75 46.83L35.75 46.86L35.75 46.88L35.75 46.9L35.75 46.92L35.75 46.95L35.75 46.97L35.75 46.99L35.75 47.02L35.75 47.04L35.75 47.06L35.75 47.08L35.75 47.1L35.75 47.13L35.75 47.15L35.75 47.17L35.75 47.19L35.75 47.21L35.75 47.23L35.75 47.25L35.75 47.27L35.75 47.3L35.75 47.32L35.75 47.34L35.75 47.36L35.75 47.38L35.75 47.4L35.75 47.42L35.75 47.44L35.75 47.46L35.75 47.48L35.75 47.5L35.75 47.52L35.75 47.54L35.75 47.55L35.75 47.57L35.75 47.59L35.75 47.61L35.75 47.63L35.75 47.65L35.75 47.67L35.75 47.68L35.75 47.7L35.75 47.72L35.75 47.74L35.75 47.76L35.75 47.77L35.75 47.79L35.75 47.81L35.75 47.83L35.75 47.84L35.75 47.86L35.75 47.88L35.75 47.89L35.75 47.91L35.75 47.92L35.75 47.94L35.75 47.96L35.75 47.97L35.75 47.99L35.75 48L35.75 48.02L35.75 48.03L35.75 48.05L35.75 48.06L35.75 48.08L35.75 48.09L35.75 48.11L35.75 48.12L35.75 48.14L35.75 48.15L35.75 48.16L35.75 48.18L35.75 48.19L35.75 48.2L35.75 48.22L35.75 48.23L35.75 48.24L35.75 48.26L35.75 48.27L35.75 48.28L35.75 48.29L35.75 48.31L35.75 48.32L35.75 48.33L35.75 48.34L35.75 48.35L35.75 48.36L35.75 48.37L35.75 48.39L35.75 48.4L35.75 48.41L35.75 48.42L35.75 48.43L35.75 48.44L35.75 48.45L35.75 48.46L35.75 48.47L35.75 48.48L35.75 48.49L35.75 48.5L35.75 48.5L35.75 48.51L35.75 48.52L35.75 48.53L35.75 48.54L35.75 48.55L35.75 48.55L35.75 48.56L35.75 48.57L35.75 48.58L35.75 48.58L35.75 48.59L35.75 48.6L35.75 48.61L35.75 48.61L35.75 48.62L35.75 48.62L35.75 48.63L35.75 48.64L35.75 48.64L35.75 48.65L35.75 48.65L35.75 48.66L35.75 48.66L35.75 48.67L35.75 48.67L35.75 48.68L35.75 48.68L35.75 48.69L35.75 48.69L35.75 48.69L35.75 48.7L35.75 48.7L35.75 48.71L35.75 48.71L35.75 48.72L35.75 48.72L35.75 48.72L35.75 48.73C35.75 50.52 34.29 51.98 32.5 51.98C30.7 51.98 29.25 50.52 29.25 48.73L29.25 48.72L29.25 48.72L29.25 48.72L29.25 48.71L29.25 48.71L29.25 48.7L29.25 48.7L29.25 48.69L29.25 48.69L29.25 48.69L29.25 48.68L29.25 48.68L29.25 48.67L29.25 48.67L29.25 48.66L29.25 48.66L29.25 48.65L29.25 48.65L29.25 48.64L29.25 48.64L29.25 48.63L29.25 48.62L29.25 48.62L29.25 48.61L29.25 48.61L29.25 48.6L29.25 48.59L29.25 48.58L29.25 48.58L29.25 48.57L29.25 48.56L29.25 48.55L29.25 48.55L29.25 48.54L29.25 48.53L29.25 48.52L29.25 48.51L29.25 48.5L29.25 48.5L29.25 48.49L29.25 48.48L29.25 48.47L29.25 48.46L29.25 48.45L29.25 48.44L29.25 48.43L29.25 48.42L29.25 48.41L29.25 48.4L29.25 48.39L29.25 48.37L29.25 48.36L29.25 48.35L29.25 48.34L29.25 48.33L29.25 48.32L29.25 48.31L29.25 48.29L29.25 48.28L29.25 48.27L29.25 48.26L29.25 48.24L29.25 48.23L29.25 48.22L29.25 48.2L29.25 48.19L29.25 48.18L29.25 48.16L29.25 48.15L29.25 48.14L29.25 48.12L29.25 48.11L29.25 48.09L29.25 48.08L29.25 48.06L29.25 48.05L29.25 48.03L29.25 48.02L29.25 48L29.25 47.99L29.25 47.97L29.25 47.96L29.25 47.94L29.25 47.92L29.25 47.91L29.25 47.89L29.25 47.88L29.25 47.86L29.25 47.84L29.25 47.83L29.25 47.81L29.25 47.79L29.25 47.77L29.25 47.76L29.25 47.74L29.25 47.72L29.25 47.7L29.25 47.68L29.25 47.67L29.25 47.65L29.25 47.63L29.25 47.61L29.25 47.59L29.25 47.57L29.25 47.55L29.25 47.54L29.25 47.52L29.25 47.5L29.25 47.48L29.25 47.46L29.25 47.44L29.25 47.42L29.25 47.4L29.25 47.38L29.25 47.36L29.25 47.34L29.25 47.32L29.25 47.3L29.25 47.27L29.25 47.25L29.25 47.23L29.25 47.21L29.25 47.19L29.25 47.17L29.25 47.15L29.25 47.13L29.25 47.1L29.25 47.08L29.25 47.06L29.25 47.04L29.25 47.02L29.25 46.99L29.25 46.97L29.25 46.95L29.25 46.92L29.25 46.9L29.25 46.88L29.25 46.86L29.25 46.83L29.25 46.81L29.25 46.79L29.25 46.76L29.25 46.74L29.25 46.71L29.25 46.69L29.25 46.67L29.25 46.64L29.25 46.62L29.25 46.59L29.25 46.57L29.25 46.54L29.25 46.52L29.25 46.49L29.25 46.47L29.25 46.44L29.25 46.42L29.25 46.39L29.25 46.37L29.25 46.34L29.25 46.32L29.25 46.29L29.25 46.27L29.25 46.24L29.25 46.21L29.25 46.19L29.25 46.16L29.25 46.13L29.25 46.11L29.25 46.08L29.25 46.06L29.25 46.03L29.25 46L29.25 45.97L29.25 45.95L29.25 45.92L29.25 45.89L29.25 45.87L29.25 45.84L29.25 45.81L29.25 45.78L29.25 45.76L29.25 45.73L29.25 45.7L29.25 45.67L29.25 45.64L29.25 45.62L29.25 45.59L29.25 45.56L29.25 45.53L29.25 45.5L29.25 45.47L29.25 45.44L29.25 45.42L29.25 45.39L29.25 45.36L29.25 45.33L29.25 45.3L29.25 45.27L29.25 45.24L29.25 45.21L29.25 45.18L29.25 45.15L29.25 45.12L29.25 45.09L29.25 45.06L29.25 45.03L29.25 45L29.25 44.97L29.25 44.94L29.25 44.91L29.25 44.88L29.25 44.85L29.25 44.82L29.25 44.79L29.25 44.76L29.25 44.73L29.25 44.7L29.25 44.67L29.25 44.64L29.25 44.6L29.25 44.57L29.25 44.54L29.25 44.51L29.25 44.48L29.25 44.45L29.25 44.42L29.25 44.38L29.25 44.35L29.25 44.32L29.25 44.29L29.25 44.26L29.25 44.23L29.25 44.19L29.25 44.16L29.25 44.13L29.25 44.1L29.25 44.07L29.25 44.03L29.25 44L29.25 43.97L29.25 43.94L29.25 43.9L29.25 43.87L29.25 43.84L29.25 43.8L29.25 43.77L29.25 43.74L29.25 43.71L29.25 43.67L29.25 43.64L29.25 43.61L29.25 43.57L29.25 43.54L29.25 43.51L29.25 43.47L29.25 43.44L29.25 43.41L29.25 43.37L29.25 43.34L29.25 43.31L29.25 43.27L29.25 43.24L29.25 43.2L29.25 43.17L29.25 43.14L29.25 43.1L29.25 43.07L29.25 43.03L29.25 43L29.25 42.97L29.25 42.93L29.25 42.9L29.25 42.86L29.25 42.83L29.25 42.79L29.25 42.76L29.25 42.73L29.25 42.69L29.25 42.66L29.25 42.62L29.25 42.59L29.25 42.55L29.25 42.52L29.25 42.48L29.25 42.45L29.25 42.41L29.25 42.38L29.25 42.34L29.25 42.31L29.25 42.27L29.25 42.24L29.25 42.2L29.25 42.17L29.25 42.13L29.25 42.1L29.25 42.06L29.25 42.03L29.25 41.99L29.25 41.96L29.25 41.92L29.25 41.88L29.25 41.85L29.25 41.81L29.25 41.78L29.25 41.74L29.25 41.71L29.25 41.67L29.25 41.63L29.25 41.6L29.25 41.56L29.25 41.53L29.25 41.49L29.25 41.46L29.25 41.42L29.25 41.38L29.25 41.35L29.25 41.31L29.25 41.28L29.25 41.24L29.25 41.2L29.25 41.17L29.25 41.13L29.25 41.1L29.25 41.06L29.25 41.02L29.25 40.99L29.25 40.95L29.25 40.91L29.25 40.88L29.25 40.84L29.25 40.81L29.25 40.77L29.25 40.73L29.25 40.7L29.25 40.66L29.25 40.62L29.25 40.59L29.25 40.55L29.25 40.52L29.25 40.48L29.25 40.44L29.25 40.41L29.25 40.37L29.25 40.33L29.25 40.3L29.25 40.26L29.25 40.22L29.25 40.19L29.25 40.15L29.25 40.11L29.25 40.08L29.25 40.04L29.25 40L29.25 39.97L29.25 39.93L29.25 39.9L29.25 39.86L29.25 39.82L29.25 39.79L29.25 39.75L29.25 39.71L29.25 39.68L29.25 39.64L29.25 39.6L29.25 39.57L29.25 39.53L29.25 39.49L29.25 39.46L29.25 39.42L29.25 39.38L29.25 39.35L29.25 39.31L29.25 39.27L29.25 39.24L29.25 39.2L29.25 39.16L29.25 39.13L29.25 39.09L29.25 39.05L29.25 39.02L29.25 38.98L29.25 38.94L29.25 38.91L29.25 38.87L29.25 38.83L29.25 38.8L29.25 38.76L29.25 38.73L29.25 38.69L29.25 38.65L29.25 38.62L29.25 38.58L29.25 38.54L29.25 38.51L29.25 38.47L29.25 38.43L29.25 38.4L29.25 38.36L29.25 38.33L29.25 38.29L29.25 38.25L29.25 38.22L29.25 38.18L29.25 38.14L29.25 38.11L29.25 38.07L29.25 38.04L29.25 38L29.25 37.96L29.25 37.93L29.25 37.89L29.25 37.86L29.25 37.82L29.25 37.78L29.25 37.75L29.25 37.71L29.25 37.67L29.25 37.64L29.25 37.6L29.25 37.57L29.25 37.53L29.25 37.5L29.25 37.46L29.25 37.42L29.25 37.39L29.25 37.35L29.25 37.32L29.25 37.28L29.25 37.25L29.25 37.21L29.25 37.18L29.25 37.14L29.25 37.1L29.25 37.07L29.25 37.03L29.25 37L29.25 36.96L29.25 36.93L29.25 36.89L29.25 36.86L29.25 36.82L29.25 36.79L29.25 36.75L29.25 36.72L29.25 36.68L29.25 36.65L29.25 36.61L29.25 36.58L29.25 36.54L29.25 36.51L29.25 36.47L29.25 36.44L29.25 36.4L29.25 36.37L29.25 36.33L29.25 36.3L29.25 36.27L29.25 36.23L29.25 36.2L29.25 36.16L29.25 36.13L29.25 36.09L29.25 36.06L29.25 36.03L29.25 35.99L29.25 35.96L29.25 35.92L29.25 35.89L29.25 35.86L29.25 35.82L29.25 35.79L29.25 35.75L29.25 35.72L29.25 35.69L29.25 35.65L29.25 35.62L29.25 35.59L29.25 35.55L29.25 35.52L29.25 35.49L29.25 35.45L29.25 35.42L29.25 35.39L29.25 35.36L29.25 35.32L29.25 35.29L29.25 35.26L29.25 35.22L29.25 35.19L29.25 35.16L29.25 35.13L29.25 35.09L29.25 35.06L29.25 35.03L29.25 35L29.25 34.96L29.25 34.93L29.25 34.9L29.25 34.87L29.25 34.84L29.25 34.8L29.25 34.79L29.25 34.78L29.25 34.77L29.25 34.75L29.25 34.74L29.25 34.73L29.25 34.71L29.25 34.7L29.25 34.69L29.25 34.67L29.25 34.66L29.25 34.65L29.25 34.64L29.25 34.62L29.25 34.61L29.25 34.6L29.25 34.58L29.25 34.57L29.25 34.56L29.25 34.54L29.25 34.53L29.25 34.52L29.25 34.5L29.25 34.49L29.25 34.48L29.25 34.46L29.25 34.45L29.25 34.44L29.25 34.42L29.25 34.41L29.25 34.4L29.25 34.38L29.25 34.37L29.25 34.36L29.25 34.34L29.25 34.33L29.25 34.32L29.25 34.3L29.25 34.29L29.25 34.27L29.25 34.26L29.25 34.25L29.25 34.23L29.25 34.22L29.25 34.21L29.25 34.19L29.25 34.18L29.25 34.16L29.25 34.15L29.25 34.14L29.25 34.12L29.25 34.11L29.25 34.09L29.25 34.08L29.25 34.07L29.25 34.05L29.25 34.04L29.25 34.02L29.25 34.01L29.25 34L29.25 33.98L29.25 33.97L29.25 33.95L29.25 33.94L29.25 33.93L29.25 33.91L29.25 33.9L29.25 33.88L29.25 33.87L29.25 33.86L29.25 33.84L29.25 33.83L29.25 33.81L29.25 33.8L29.25 33.78L29.25 33.77L29.25 33.76L29.25 33.74L29.25 33.73L29.25 33.71L29.25 33.7L29.25 33.68L29.25 33.67L29.25 33.66L29.25 33.64L29.25 33.63L29.25 33.61L29.25 33.6L29.25 33.58L29.25 33.57L29.25 33.55L29.25 33.54L29.25 33.53L29.25 33.51L29.25 33.5L29.25 33.48L29.25 33.47L29.25 33.45L29.25 33.44L29.25 33.42L29.25 33.41L29.25 33.4L29.25 33.38L29.25 33.37L29.25 33.35L29.25 33.34L29.25 33.32L29.25 33.31L29.25 33.29L29.25 33.28L29.25 33.26L29.25 33.25L29.25 33.24L29.25 33.22L29.25 33.21L29.25 33.19L29.25 33.18L29.25 33.16L29.25 33.15L29.25 33.13L29.25 33.12L29.25 33.1L29.25 33.09L29.25 33.07L29.25 33.06L29.25 33.04L29.25 33.03L29.25 33.02L29.25 33L29.25 32.99L29.25 32.97L29.25 32.96L29.25 32.94L29.25 32.93L29.25 32.91L29.25 32.9L29.25 32.88L29.25 32.87L29.25 32.86L29.25 32.84L29.25 32.83L29.25 32.81L29.25 32.8L29.25 32.78L29.25 32.77L29.25 32.75L29.25 32.74L29.25 32.72L29.25 32.71L29.25 32.69L29.25 32.68L29.25 32.66L29.25 32.65L29.25 32.64L29.25 32.62L29.25 32.61L29.25 32.59L29.25 32.58L29.25 32.56L29.25 32.55L29.25 32.53L29.25 32.52L29.25 32.5L29.25 32.49L29.25 32.48L29.25 32.46L29.25 32.45L29.25 32.43L29.25 32.42L29.25 32.4L29.25 32.39L29.25 32.37L29.25 32.36L29.25 32.34L29.25 32.33L29.25 32.32L29.25 32.3L29.25 32.29L29.25 32.27L29.25 32.26L29.25 32.24L29.25 32.23L29.25 32.21L29.25 32.2L29.25 32.19L29.25 32.17L29.25 32.16L29.25 32.14L29.25 32.13L29.25 32.11L29.25 32.1L29.25 32.09L29.25 32.07L29.25 32.06L29.25 32.04L29.25 32.03L29.25 32.01L29.25 32L29.25 31.99L29.25 31.97L29.25 31.96L29.25 31.94L29.25 31.93L29.25 31.91L29.25 31.9L29.25 31.89L29.25 31.87L29.25 31.86L29.25 31.84L29.25 31.83L29.25 31.82L29.25 31.8L29.25 31.79L29.25 31.77L29.25 31.76L29.25 31.75L29.25 31.73L29.25 31.72L29.25 31.7L29.25 31.69L29.25 31.68L29.25 31.66L29.25 31.65L29.25 31.64L29.25 31.62L29.25 31.61L29.25 31.59L29.25 31.58L29.25 31.57L29.25 31.55L29.25 31.54L29.25 31.53L29.25 31.51L29.25 31.5L29.25 31.48L29.25 31.47L29.25 31.46L29.25 31.44L29.25 31.43L29.25 31.42L29.25 31.4L29.25 31.39L29.25 31.38L29.25 31.36L29.25 31.35L29.25 31.34L29.25 31.32L29.25 31.31L29.25 31.3L29.25 31.28L29.25 31.27L29.25 31.26L29.25 31.24L29.25 31.23L29.25 31.22L29.25 31.2L29.25 31.19L29.25 31.18L29.25 31.16L29.25 31.15L29.25 31.14L29.25 31.12L29.25 31.11L29.25 31.1L29.25 31.09L29.25 31.07L29.25 31.06L29.25 31.05L29.25 31.04L29.25 31.02L29.25 31.01L29.25 31L29.25 30.98L29.25 30.97L29.25 30.96L29.25 30.95L29.25 30.93L29.25 30.92L29.25 30.91L29.25 30.9L29.25 30.88L29.25 30.87L29.25 30.86L29.25 30.85L29.25 30.83L29.25 30.82L29.25 30.81L29.25 30.8L29.25 30.79L29.25 30.77L29.25 30.76L29.25 30.75L29.25 30.74L29.25 30.72L29.25 30.71L29.25 30.7L29.25 30.69L29.25 30.68L29.25 30.66L29.25 30.65L29.25 30.64L29.25 30.63L29.25 30.62L29.25 30.61L29.25 30.59L29.25 30.58L29.25 30.57L29.25 30.56L29.25 30.55L29.25 30.54L29.25 30.52L29.25 30.51L29.25 30.5L29.25 30.49L29.25 30.48L29.25 30.47L29.25 30.46L29.25 30.45L29.25 30.43L29.25 30.42L29.25 30.41L29.25 30.4L29.25 30.39L29.25 30.38L29.25 30.37L29.25 30.36L29.25 30.35L29.25 30.34L29.25 30.33L29.25 30.31L29.25 30.3L29.25 30.29L29.25 30.28L29.25 30.27L29.25 30.26L29.25 30.25L29.25 30.24L29.25 30.23L29.25 30.22L29.25 30.21L29.25 30.2L29.25 30.19L29.25 30.18L29.25 30.17L29.25 30.16L29.25 30.15L29.25 30.14L29.25 30.13L29.25 30.12L29.25 30.11L29.25 30.1L29.25 30.09L29.25 30.08L29.25 30.07L29.25 30.06L29.25 30.05L29.25 30.04L29.25 30.03L29.25 30.02L29.25 30.01L29.25 30L29.25 29.99L29.25 29.98L29.25 29.97L29.25 29.96L29.25 29.96L29.25 29.95L29.25 29.94L29.25 29.93L29.25 29.92L29.25 29.91L29.25 29.9L29.25 29.89L29.25 29.88L29.25 29.87L29.25 29.87L29.25 29.86L29.25 29.85L29.25 29.84L29.25 29.83L29.25 29.82L29.25 29.82L29.25 29.81L29.25 29.8L29.25 29.79L29.25 29.78L29.25 29.77L29.25 29.77L29.25 29.76L29.25 29.75L29.25 29.74L29.25 29.73L29.25 29.73L29.25 29.72L29.25 29.71L29.25 29.7L29.25 29.7L29.25 29.69L29.25 29.68L29.25 29.67L29.25 29.67L29.25 29.66L29.25 29.65L29.25 29.64L29.25 29.64L29.25 29.63L29.25 29.62L29.25 29.62L29.25 29.61L29.25 29.6L29.25 29.6L29.25 29.59L29.25 29.58L29.25 29.58L29.25 29.57L29.25 29.56L29.25 29.56L29.25 29.55L29.25 29.54L29.25 29.54L29.25 29.53L29.25 29.52L29.25 29.52L29.25 29.51L29.25 29.51L29.25 29.5L29.25 29.49L29.25 29.49L29.25 29.48L29.25 29.48L29.25 29.47L29.25 29.47L29.25 29.46L29.25 29.45L29.25 29.45L29.25 29.44L29.25 29.44L29.25 29.43L29.25 29.43L29.25 29.42L29.25 29.42L29.25 29.41L29.25 29.41L29.25 29.4L29.25 29.4L29.25 29.39L29.25 29.39L29.25 29.38L29.25 29.38L29.25 29.37L29.25 29.37L29.25 29.37L29.25 29.36L29.25 29.36L29.25 29.35L29.25 29.35L29.25 29.35L29.25 29.34L29.25 29.34L29.25 29.33L29.25 29.33L29.25 29.33L29.25 29.32L29.25 29.32L29.25 29.32L29.25 29.31L29.25 29.31L29.25 29.31L29.25 29.3L29.25 29.29L29.25 29.29L29.25 29.28L29.25 29.28L29.25 29.27L29.25 29.27L29.25 29.26L29.25 29.26L29.25 29.26L29.25 29.25L29.25 29.25L29.25 29.24L29.25 29.24L29.25 29.24C29.25 27.44 30.7 25.99 32.5 25.99Z"/>
	</symbol>

	<symbol viewBox="0 0 65 64.9756" id="instagram-icon">
	<path fill="inherit" d="M19.07 0.39C13.78 0.63 9.2 1.93 5.49 5.61C1.78 9.32 0.5 13.92 0.26 19.15C0.11 22.42 -0.76 47.1 1.76 53.57C3.46 57.94 6.81 61.29 11.22 63C13.28 63.8 15.63 64.34 19.07 64.5C47.87 65.8 58.54 65.09 63.05 53.57C63.84 51.52 64.39 49.17 64.55 45.74C65.86 16.88 64.33 10.62 59.31 5.61C55.33 1.64 50.65 -1.06 19.07 0.39ZM19.34 58.69C16.18 58.55 14.47 58.03 13.33 57.58C10.46 56.47 8.3 54.32 7.19 51.47C5.27 46.55 5.91 23.19 6.08 19.41C6.25 15.71 7 12.33 9.61 9.72C12.85 6.49 17.02 4.91 45.47 6.2C49.19 6.36 52.58 7.11 55.2 9.72C58.43 12.94 60.03 17.15 58.73 45.48C58.59 48.62 58.06 50.33 57.62 51.47C54.69 58.96 47.96 60.01 19.34 58.69ZM45.79 15.23C45.79 17.37 47.52 19.1 49.67 19.1C51.81 19.1 53.55 17.37 53.55 15.23C53.55 13.1 51.81 11.36 49.67 11.36C47.52 11.36 45.79 13.1 45.79 15.23ZM15.8 32.44C15.8 41.59 23.23 49 32.4 49C41.58 49 49.01 41.59 49.01 32.44C49.01 23.3 41.58 15.89 32.4 15.89C23.23 15.89 15.8 23.3 15.8 32.44ZM21.63 32.44C21.63 26.51 26.45 21.7 32.4 21.7C38.36 21.7 43.18 26.51 43.18 32.44C43.18 38.38 38.36 43.2 32.4 43.2C26.45 43.2 21.63 38.38 21.63 32.44Z" />
	</symbol>

	<symbol viewBox="0 0 65 64.9756" id="facebook-icon">
	<path fill="inherit" id="Facebook_SVG" d="M0 12.99C0 5.81 5.82 0 13 0L52 0C59.17 0 65 5.81 65 12.99L65 51.98C65 59.15 59.17 64.97 52 64.97L13 64.97C5.82 64.97 0 59.15 0 51.98L0 12.99ZM13 6.49C9.41 6.49 6.5 9.4 6.5 12.99L6.5 51.98C6.5 55.56 9.41 58.47 13 58.47L32.5 58.47L32.5 35.73L29.25 35.73C27.45 35.73 26 34.28 26 32.48C26 30.69 27.45 29.23 29.25 29.23L32.5 29.23L32.5 24.36C32.5 18.08 37.59 12.99 43.87 12.99L45.82 12.99C47.61 12.99 49.07 14.45 49.07 16.24C49.07 18.03 47.61 19.49 45.82 19.49L43.87 19.49C41.18 19.49 39 21.67 39 24.36L39 29.23L45.82 29.23C47.61 29.23 49.07 30.69 49.07 32.48C49.07 34.28 47.61 35.73 45.82 35.73L39 35.73L39 58.47L52 58.47C55.58 58.47 58.5 55.56 58.5 51.98L58.5 12.99C58.5 9.4 55.58 6.49 52 6.49L13 6.49Z"/>
	</symbol>

</svg>



